<svg width="122" height="122" viewBox="0 0 122 122" fill="none" xmlns="http://www.w3.org/2000/svg">
<rect x="1" y="1" width="120" height="120" rx="60" stroke="black" stroke-width="2"/>
<path d="M74.6667 52.7917C75.4931 52.7917 76.1858 52.5321 76.7448 52.013C77.3038 51.4939 77.5833 50.8507 77.5833 50.0833C77.5833 49.316 77.3038 48.6727 76.7448 48.1536C76.1858 47.6346 75.4931 47.375 74.6667 47.375C73.8403 47.375 73.1476 47.6346 72.5885 48.1536C72.0295 48.6727 71.75 49.316 71.75 50.0833C71.75 50.8507 72.0295 51.4939 72.5885 52.013C73.1476 52.5321 73.8403 52.7917 74.6667 52.7917ZM51.3333 47.375H65.9167V41.9583H51.3333V47.375ZM41.125 79.875C39.4722 74.7292 37.8437 69.5946 36.2396 64.4714C34.6354 59.3481 33.8333 54.1007 33.8333 48.7292C33.8333 44.5764 35.3889 41.0556 38.5 38.1667C41.6111 35.2778 45.4028 33.8333 49.875 33.8333H64.4583C65.8681 32.1181 67.5816 30.7865 69.599 29.8385C71.6163 28.8906 73.7917 28.4167 76.125 28.4167C77.3403 28.4167 78.3733 28.8116 79.224 29.6016C80.0747 30.3915 80.5 31.3507 80.5 32.4792C80.5 32.75 80.4635 33.0208 80.3906 33.2917C80.3177 33.5625 80.2326 33.8108 80.1354 34.0365C79.941 34.533 79.7587 35.0408 79.5885 35.5599C79.4184 36.079 79.2847 36.6094 79.1875 37.151L85.8229 43.3125H92.1667V62.2031L83.9271 64.7083L79.0417 79.875H63V74.4583H57.1667V79.875H41.125ZM45.5 74.4583H51.3333V69.0417H68.8333V74.4583H74.6667L79.1875 60.5104L86.3333 58.276V48.7292H83.4167L73.2083 39.25C73.2083 38.3472 73.2691 37.4783 73.3906 36.6432C73.5122 35.8082 73.6944 34.9618 73.9375 34.1042C72.5278 34.4653 71.2882 35.0859 70.2188 35.9661C69.1493 36.8464 68.3715 37.941 67.8854 39.25H49.875C47.0556 39.25 44.6493 40.1753 42.6562 42.026C40.6632 43.8767 39.6667 46.1111 39.6667 48.7292C39.6667 53.1528 40.3229 57.4748 41.6354 61.6953C42.9479 65.9158 44.2361 70.1701 45.5 74.4583Z" fill="#1F1F1F"/>
<path d="M59.25 29.75C57.775 29.75 56.4625 29.3313 55.3125 28.4938C54.1625 27.6563 53.35 26.575 52.875 25.25H50.25V23.75H52.5375C52.5 23.45 52.4844 23.1719 52.4906 22.9156C52.4969 22.6594 52.5125 22.4375 52.5375 22.25H50.25V20.75H52.875C53.35 19.425 54.1625 18.3438 55.3125 17.5063C56.4625 16.6687 57.775 16.25 59.25 16.25C60.1125 16.25 60.9281 16.4031 61.6969 16.7094C62.4656 17.0156 63.15 17.4375 63.75 17.975L62.6813 19.025C62.2188 18.625 61.6969 18.3125 61.1156 18.0875C60.5344 17.8625 59.9125 17.75 59.25 17.75C58.1875 17.75 57.2375 18.0281 56.4 18.5844C55.5625 19.1406 54.9313 19.8625 54.5063 20.75H59.25V22.25H54.0563C54.0063 22.5875 53.9875 22.8844 54 23.1406C54.0125 23.3969 54.0313 23.6 54.0563 23.75H59.25V25.25H54.5063C54.9313 26.1375 55.5625 26.8594 56.4 27.4156C57.2375 27.9719 58.1875 28.25 59.25 28.25C59.9125 28.25 60.5344 28.1375 61.1156 27.9125C61.6969 27.6875 62.2188 27.375 62.6813 26.975L63.75 28.025C63.15 28.5625 62.4656 28.9844 61.6969 29.2906C60.9281 29.5969 60.1125 29.75 59.25 29.75Z" fill="#1F1F1F"/>
<path d="M32.0405 98.12C31.7685 97.456 31.4965 96.796 31.2245 96.14C30.9605 95.484 30.6925 94.828 30.4205 94.172C30.3565 94.02 30.2725 93.808 30.1685 93.536C30.0725 93.256 29.9685 92.936 29.8565 92.576C29.7525 92.216 29.6565 91.844 29.5685 91.46C29.5845 91.908 29.5965 92.332 29.6045 92.732C29.6125 93.124 29.6125 93.5 29.6045 93.86C29.6045 94.036 29.6045 94.216 29.6045 94.4C29.6045 94.584 29.6005 94.768 29.5925 94.952C29.5925 95.128 29.5925 95.308 29.5925 95.492C29.5925 95.668 29.5925 95.848 29.5925 96.032C29.5925 96.248 29.5845 96.456 29.5685 96.656C29.5605 96.856 29.5485 97.008 29.5325 97.112C29.6685 97.096 29.8325 97.088 30.0245 97.088C30.2245 97.08 30.3645 97.076 30.4445 97.076V98H27.7085V97.208C27.8925 97.2 28.0445 97.176 28.1645 97.136C28.2925 97.096 28.3885 97.004 28.4525 96.86C28.5245 96.716 28.5605 96.484 28.5605 96.164L28.6325 91.568C28.6405 91.352 28.6485 91.144 28.6565 90.944C28.6645 90.744 28.6725 90.592 28.6805 90.488C28.5525 90.496 28.3925 90.504 28.2005 90.512C28.0085 90.512 27.8685 90.516 27.7805 90.524V89.6H30.4325L32.2445 94.244C32.3165 94.428 32.3965 94.644 32.4845 94.892C32.5725 95.132 32.6565 95.368 32.7365 95.6C32.8165 95.824 32.8765 96.004 32.9165 96.14H32.9285C33.0325 95.86 33.1285 95.588 33.2165 95.324C33.3045 95.06 33.3965 94.804 33.4925 94.556C33.8045 93.724 34.1125 92.896 34.4165 92.072C34.7285 91.248 35.0405 90.424 35.3525 89.6H38.1245V90.392C37.9485 90.4 37.7925 90.424 37.6565 90.464C37.5205 90.504 37.4165 90.596 37.3445 90.74C37.2805 90.876 37.2525 91.108 37.2605 91.436L37.4405 96.032C37.4565 96.248 37.4565 96.456 37.4405 96.656C37.4245 96.856 37.4085 97.008 37.3925 97.112C37.5285 97.096 37.6925 97.088 37.8845 97.088C38.0845 97.08 38.2245 97.076 38.3045 97.076V98H34.9685V97.208C35.1525 97.2 35.3085 97.176 35.4365 97.136C35.5725 97.096 35.6725 97.004 35.7365 96.86C35.8085 96.716 35.8365 96.484 35.8205 96.164L35.7245 93.62C35.7245 93.524 35.7165 93.36 35.7005 93.128C35.6845 92.888 35.6685 92.628 35.6525 92.348C35.6445 92.06 35.6365 91.792 35.6285 91.544C35.6045 91.6 35.5805 91.656 35.5565 91.712C35.5325 91.76 35.5125 91.812 35.4965 91.868L33.1565 98.12H32.0405ZM41.9672 98.192C41.3912 98.192 40.8712 98.068 40.4072 97.82C39.9432 97.572 39.5752 97.22 39.3032 96.764C39.0392 96.3 38.9072 95.756 38.9072 95.132C38.9072 94.468 39.0432 93.888 39.3152 93.392C39.5952 92.888 39.9632 92.5 40.4192 92.228C40.8832 91.948 41.3872 91.808 41.9312 91.808C42.5072 91.808 43.0232 91.932 43.4792 92.18C43.9352 92.428 44.2952 92.784 44.5592 93.248C44.8232 93.704 44.9552 94.252 44.9552 94.892C44.9552 95.564 44.8272 96.148 44.5712 96.644C44.3152 97.14 43.9632 97.524 43.5152 97.796C43.0672 98.06 42.5512 98.192 41.9672 98.192ZM42.0152 97.34C42.3352 97.332 42.5752 97.22 42.7352 97.004C42.9032 96.788 43.0192 96.516 43.0832 96.188C43.1472 95.86 43.1792 95.528 43.1792 95.192C43.1792 94.896 43.1552 94.596 43.1072 94.292C43.0672 93.988 42.9992 93.712 42.9032 93.464C42.8072 93.216 42.6752 93.016 42.5072 92.864C42.3472 92.712 42.1472 92.64 41.9072 92.648C41.5952 92.656 41.3472 92.768 41.1632 92.984C40.9872 93.2 40.8592 93.472 40.7792 93.8C40.7072 94.12 40.6712 94.456 40.6712 94.808C40.6712 95.216 40.7152 95.616 40.8032 96.008C40.8912 96.4 41.0312 96.724 41.2232 96.98C41.4232 97.228 41.6872 97.348 42.0152 97.34ZM45.824 98V97.22C46.048 97.22 46.208 97.176 46.304 97.088C46.4 97 46.46 96.876 46.484 96.716C46.516 96.548 46.532 96.36 46.532 96.152V94.136C46.532 93.992 46.536 93.832 46.544 93.656C46.552 93.472 46.564 93.292 46.58 93.116C46.452 93.124 46.3 93.132 46.124 93.14C45.956 93.14 45.828 93.144 45.74 93.152V92.24C46.108 92.24 46.42 92.22 46.676 92.18C46.932 92.14 47.132 92.092 47.276 92.036C47.428 91.98 47.532 91.928 47.588 91.88H48.176C48.192 91.984 48.2 92.06 48.2 92.108C48.2 92.156 48.2 92.204 48.2 92.252C48.208 92.292 48.224 92.368 48.248 92.48C48.408 92.352 48.592 92.24 48.8 92.144C49.008 92.04 49.216 91.96 49.424 91.904C49.632 91.84 49.816 91.808 49.976 91.808C50.712 91.808 51.232 92.02 51.536 92.444C51.848 92.86 52.004 93.532 52.004 94.46V96.068C52.004 96.18 52 96.34 51.992 96.548C51.984 96.748 51.972 96.94 51.956 97.124C52.092 97.108 52.236 97.1 52.388 97.1C52.54 97.092 52.656 97.088 52.736 97.088V98H49.592V97.22C49.816 97.22 49.976 97.176 50.072 97.088C50.176 97 50.24 96.876 50.264 96.716C50.296 96.548 50.312 96.36 50.312 96.152L50.3 94.448C50.3 93.928 50.224 93.544 50.072 93.296C49.928 93.04 49.68 92.912 49.328 92.912C49.128 92.912 48.928 92.956 48.728 93.044C48.536 93.132 48.372 93.236 48.236 93.356C48.236 93.468 48.236 93.584 48.236 93.704C48.236 93.816 48.236 93.928 48.236 94.04V96.068C48.236 96.18 48.232 96.34 48.224 96.548C48.216 96.748 48.204 96.94 48.188 97.124C48.316 97.108 48.456 97.1 48.608 97.1C48.768 97.092 48.888 97.088 48.968 97.088V98H45.824ZM56.3204 98.192C55.7364 98.192 55.2204 98.064 54.7724 97.808C54.3244 97.544 53.9764 97.176 53.7284 96.704C53.4804 96.224 53.3564 95.66 53.3564 95.012C53.3564 94.452 53.4804 93.928 53.7284 93.44C53.9764 92.952 54.3244 92.56 54.7724 92.264C55.2284 91.96 55.7564 91.808 56.3564 91.808C56.6924 91.808 57.0204 91.856 57.3404 91.952C57.6604 92.04 57.9484 92.196 58.2044 92.42C58.4684 92.644 58.6764 92.948 58.8284 93.332C58.9884 93.716 59.0644 94.196 59.0564 94.772L55.1204 94.844C55.1204 95.276 55.1724 95.664 55.2764 96.008C55.3884 96.352 55.5684 96.624 55.8164 96.824C56.0644 97.024 56.3964 97.124 56.8124 97.124C56.9724 97.124 57.1524 97.096 57.3524 97.04C57.5604 96.984 57.7684 96.892 57.9764 96.764C58.1924 96.628 58.3924 96.448 58.5764 96.224L59.1164 96.728C58.8284 97.136 58.5204 97.448 58.1924 97.664C57.8644 97.872 57.5364 98.012 57.2084 98.084C56.8884 98.156 56.5924 98.192 56.3204 98.192ZM55.1924 94.004H57.4004C57.3924 93.668 57.3444 93.404 57.2564 93.212C57.1764 93.012 57.0644 92.868 56.9204 92.78C56.7764 92.692 56.6084 92.648 56.4164 92.648C56.0644 92.648 55.7884 92.776 55.5884 93.032C55.3884 93.28 55.2564 93.604 55.1924 94.004ZM61.1705 101.252C60.8665 101.252 60.6065 101.16 60.3905 100.976C60.1825 100.8 60.0785 100.564 60.0785 100.268C60.0785 100.052 60.1465 99.86 60.2825 99.692C60.4265 99.532 60.6105 99.448 60.8345 99.44C61.0105 99.432 61.1585 99.488 61.2785 99.608C61.4065 99.736 61.4705 99.908 61.4705 100.124C61.4705 100.148 61.4705 100.172 61.4705 100.196C61.4705 100.22 61.4665 100.248 61.4585 100.28C61.4745 100.28 61.4945 100.276 61.5185 100.268C61.5905 100.244 61.6665 100.176 61.7465 100.064C61.8345 99.96 61.9185 99.82 61.9985 99.644C62.0865 99.46 62.1705 99.252 62.2505 99.02C62.3385 98.796 62.4145 98.56 62.4785 98.312L60.5825 94.508C60.3585 94.06 60.2105 93.724 60.1385 93.5C60.0745 93.268 60.0305 93.064 60.0065 92.888L59.4545 92.912V92H62.4425V92.768C62.1465 92.8 61.9825 92.912 61.9505 93.104C61.9265 93.296 61.9625 93.496 62.0585 93.704L63.2345 96.392C63.3145 96.184 63.4185 95.864 63.5465 95.432C63.6745 94.992 63.8265 94.516 64.0025 94.004C64.0345 93.9 64.0745 93.78 64.1225 93.644C64.1785 93.5 64.2385 93.36 64.3025 93.224C64.3665 93.08 64.4345 92.964 64.5065 92.876L63.8225 92.912V92H65.9585V92.768C65.7105 92.824 65.5025 92.976 65.3345 93.224C65.1745 93.472 65.0305 93.776 64.9025 94.136L63.4025 98.42C63.1785 99.068 62.9665 99.6 62.7665 100.016C62.5665 100.44 62.3425 100.752 62.0945 100.952C61.8465 101.152 61.5385 101.252 61.1705 101.252ZM70.5249 98.12C70.2529 97.456 69.9809 96.796 69.7089 96.14C69.4449 95.484 69.1769 94.828 68.9049 94.172C68.8409 94.02 68.7569 93.808 68.6529 93.536C68.5569 93.256 68.4529 92.936 68.3409 92.576C68.2369 92.216 68.1409 91.844 68.0529 91.46C68.0689 91.908 68.0809 92.332 68.0889 92.732C68.0969 93.124 68.0969 93.5 68.0889 93.86C68.0889 94.036 68.0889 94.216 68.0889 94.4C68.0889 94.584 68.0849 94.768 68.0769 94.952C68.0769 95.128 68.0769 95.308 68.0769 95.492C68.0769 95.668 68.0769 95.848 68.0769 96.032C68.0769 96.248 68.0689 96.456 68.0529 96.656C68.0449 96.856 68.0329 97.008 68.0169 97.112C68.1529 97.096 68.3169 97.088 68.5089 97.088C68.7089 97.08 68.8489 97.076 68.9289 97.076V98H66.1929V97.208C66.3769 97.2 66.5289 97.176 66.6489 97.136C66.7769 97.096 66.8729 97.004 66.9369 96.86C67.0089 96.716 67.0449 96.484 67.0449 96.164L67.1169 91.568C67.1249 91.352 67.1329 91.144 67.1409 90.944C67.1489 90.744 67.1569 90.592 67.1649 90.488C67.0369 90.496 66.8769 90.504 66.6849 90.512C66.4929 90.512 66.3529 90.516 66.2649 90.524V89.6H68.9169L70.7289 94.244C70.8009 94.428 70.8809 94.644 70.9689 94.892C71.0569 95.132 71.1409 95.368 71.2209 95.6C71.3009 95.824 71.3609 96.004 71.4009 96.14H71.4129C71.5169 95.86 71.6129 95.588 71.7009 95.324C71.7889 95.06 71.8809 94.804 71.9769 94.556C72.2889 93.724 72.5969 92.896 72.9009 92.072C73.2129 91.248 73.5249 90.424 73.8369 89.6H76.6089V90.392C76.4329 90.4 76.2769 90.424 76.1409 90.464C76.0049 90.504 75.9009 90.596 75.8289 90.74C75.7649 90.876 75.7369 91.108 75.7449 91.436L75.9249 96.032C75.9409 96.248 75.9409 96.456 75.9249 96.656C75.9089 96.856 75.8929 97.008 75.8769 97.112C76.0129 97.096 76.1769 97.088 76.3689 97.088C76.5689 97.08 76.7089 97.076 76.7889 97.076V98H73.4529V97.208C73.6369 97.2 73.7929 97.176 73.9209 97.136C74.0569 97.096 74.1569 97.004 74.2209 96.86C74.2929 96.716 74.3209 96.484 74.3049 96.164L74.2089 93.62C74.2089 93.524 74.2009 93.36 74.1849 93.128C74.1689 92.888 74.1529 92.628 74.1369 92.348C74.1289 92.06 74.1209 91.792 74.1129 91.544C74.0889 91.6 74.0649 91.656 74.0409 91.712C74.0169 91.76 73.9969 91.812 73.9809 91.868L71.6409 98.12H70.5249ZM81.0233 98C81.0073 97.888 80.9953 97.796 80.9873 97.724C80.9873 97.644 80.9833 97.552 80.9753 97.448C80.7033 97.72 80.4153 97.912 80.1113 98.024C79.8073 98.136 79.4993 98.192 79.1873 98.192C78.6753 98.192 78.2753 98.04 77.9873 97.736C77.6993 97.432 77.5553 97.052 77.5553 96.596C77.5553 96.212 77.6513 95.884 77.8433 95.612C78.0433 95.34 78.3033 95.12 78.6233 94.952C78.9513 94.776 79.3113 94.644 79.7033 94.556C80.1033 94.46 80.5033 94.404 80.9033 94.388V93.764C80.9033 93.556 80.8753 93.368 80.8193 93.2C80.7713 93.032 80.6833 92.9 80.5553 92.804C80.4353 92.708 80.2633 92.664 80.0393 92.672C79.8873 92.68 79.7393 92.712 79.5953 92.768C79.4513 92.824 79.3273 92.904 79.2233 93.008C79.2873 93.08 79.3273 93.16 79.3433 93.248C79.3593 93.328 79.3673 93.4 79.3673 93.464C79.3673 93.624 79.3033 93.792 79.1753 93.968C79.0473 94.136 78.8433 94.216 78.5633 94.208C78.3233 94.2 78.1393 94.116 78.0113 93.956C77.8833 93.796 77.8193 93.608 77.8193 93.392C77.8193 93.072 77.9313 92.796 78.1553 92.564C78.3873 92.324 78.6953 92.14 79.0793 92.012C79.4633 91.876 79.8873 91.808 80.3513 91.808C81.0553 91.808 81.5993 91.992 81.9833 92.36C82.3753 92.72 82.5713 93.3 82.5713 94.1C82.5713 94.372 82.5713 94.604 82.5713 94.796C82.5713 94.988 82.5673 95.18 82.5593 95.372C82.5593 95.564 82.5593 95.796 82.5593 96.068C82.5593 96.18 82.5553 96.34 82.5473 96.548C82.5393 96.748 82.5273 96.94 82.5113 97.124C82.6473 97.108 82.7913 97.1 82.9433 97.1C83.0953 97.092 83.2113 97.088 83.2913 97.088V98H81.0233ZM80.8913 95.24C80.6673 95.264 80.4553 95.304 80.2553 95.36C80.0553 95.416 79.8793 95.492 79.7273 95.588C79.5833 95.684 79.4673 95.8 79.3793 95.936C79.2993 96.072 79.2593 96.224 79.2593 96.392C79.2673 96.616 79.3393 96.776 79.4753 96.872C79.6113 96.968 79.7673 97.016 79.9433 97.016C80.1273 97.016 80.2993 96.976 80.4593 96.896C80.6193 96.816 80.7633 96.712 80.8913 96.584C80.8913 96.504 80.8913 96.428 80.8913 96.356C80.8913 96.276 80.8913 96.196 80.8913 96.116C80.8913 95.972 80.8913 95.828 80.8913 95.684C80.8913 95.532 80.8913 95.384 80.8913 95.24ZM86.3094 98.192C86.0694 98.192 85.8374 98.164 85.6134 98.108C85.3894 98.052 85.1894 97.948 85.0134 97.796C84.8374 97.636 84.6974 97.404 84.5934 97.1C84.4894 96.796 84.4374 96.392 84.4374 95.888L84.4614 92.996H83.6454V92C83.8934 91.992 84.1334 91.908 84.3654 91.748C84.5974 91.588 84.7934 91.38 84.9534 91.124C85.1214 90.868 85.2334 90.6 85.2894 90.32H86.1774L86.1654 92H87.6894V92.924L86.1654 92.96L86.1534 95.912C86.1534 96.096 86.1694 96.28 86.2014 96.464C86.2414 96.64 86.3134 96.788 86.4174 96.908C86.5214 97.02 86.6734 97.076 86.8734 97.076C86.9854 97.076 87.1374 97.036 87.3294 96.956C87.5294 96.876 87.7414 96.676 87.9654 96.356L88.5414 96.896C88.3254 97.216 88.1014 97.464 87.8694 97.64C87.6374 97.816 87.4134 97.944 87.1974 98.024C86.9894 98.104 86.8054 98.152 86.6454 98.168C86.4854 98.184 86.3734 98.192 86.3094 98.192ZM91.7344 98.192C91.1504 98.192 90.6344 98.064 90.1864 97.808C89.7384 97.544 89.3904 97.176 89.1424 96.704C88.8944 96.224 88.7704 95.66 88.7704 95.012C88.7704 94.452 88.8944 93.928 89.1424 93.44C89.3904 92.952 89.7384 92.56 90.1864 92.264C90.6424 91.96 91.1704 91.808 91.7704 91.808C92.1064 91.808 92.4344 91.856 92.7544 91.952C93.0744 92.04 93.3624 92.196 93.6184 92.42C93.8824 92.644 94.0904 92.948 94.2424 93.332C94.4024 93.716 94.4784 94.196 94.4704 94.772L90.5344 94.844C90.5344 95.276 90.5864 95.664 90.6904 96.008C90.8024 96.352 90.9824 96.624 91.2304 96.824C91.4784 97.024 91.8104 97.124 92.2264 97.124C92.3864 97.124 92.5664 97.096 92.7664 97.04C92.9744 96.984 93.1824 96.892 93.3904 96.764C93.6064 96.628 93.8064 96.448 93.9904 96.224L94.5304 96.728C94.2424 97.136 93.9344 97.448 93.6064 97.664C93.2784 97.872 92.9504 98.012 92.6224 98.084C92.3024 98.156 92.0064 98.192 91.7344 98.192ZM90.6064 94.004H92.8144C92.8064 93.668 92.7584 93.404 92.6704 93.212C92.5904 93.012 92.4784 92.868 92.3344 92.78C92.1904 92.692 92.0224 92.648 91.8304 92.648C91.4784 92.648 91.2024 92.776 91.0024 93.032C90.8024 93.28 90.6704 93.604 90.6064 94.004Z" fill="black"/>
<line x1="33" y1="103.5" x2="88" y2="103.5" stroke="black"/>
</svg>
