<svg width="122" height="122" viewBox="0 0 122 122" fill="none" xmlns="http://www.w3.org/2000/svg">
<rect x="1" y="1" width="120" height="120" rx="60" stroke="black" stroke-width="2"/>
<path d="M32.0405 92.12C31.7685 91.456 31.4965 90.796 31.2245 90.14C30.9605 89.484 30.6925 88.828 30.4205 88.172C30.3565 88.02 30.2725 87.808 30.1685 87.536C30.0725 87.256 29.9685 86.936 29.8565 86.576C29.7525 86.216 29.6565 85.844 29.5685 85.46C29.5845 85.908 29.5965 86.332 29.6045 86.732C29.6125 87.124 29.6125 87.5 29.6045 87.86C29.6045 88.036 29.6045 88.216 29.6045 88.4C29.6045 88.584 29.6005 88.768 29.5925 88.952C29.5925 89.128 29.5925 89.308 29.5925 89.492C29.5925 89.668 29.5925 89.848 29.5925 90.032C29.5925 90.248 29.5845 90.456 29.5685 90.656C29.5605 90.856 29.5485 91.008 29.5325 91.112C29.6685 91.096 29.8325 91.088 30.0245 91.088C30.2245 91.08 30.3645 91.076 30.4445 91.076V92H27.7085V91.208C27.8925 91.2 28.0445 91.176 28.1645 91.136C28.2925 91.096 28.3885 91.004 28.4525 90.86C28.5245 90.716 28.5605 90.484 28.5605 90.164L28.6325 85.568C28.6405 85.352 28.6485 85.144 28.6565 84.944C28.6645 84.744 28.6725 84.592 28.6805 84.488C28.5525 84.496 28.3925 84.504 28.2005 84.512C28.0085 84.512 27.8685 84.516 27.7805 84.524V83.6H30.4325L32.2445 88.244C32.3165 88.428 32.3965 88.644 32.4845 88.892C32.5725 89.132 32.6565 89.368 32.7365 89.6C32.8165 89.824 32.8765 90.004 32.9165 90.14H32.9285C33.0325 89.86 33.1285 89.588 33.2165 89.324C33.3045 89.06 33.3965 88.804 33.4925 88.556C33.8045 87.724 34.1125 86.896 34.4165 86.072C34.7285 85.248 35.0405 84.424 35.3525 83.6H38.1245V84.392C37.9485 84.4 37.7925 84.424 37.6565 84.464C37.5205 84.504 37.4165 84.596 37.3445 84.74C37.2805 84.876 37.2525 85.108 37.2605 85.436L37.4405 90.032C37.4565 90.248 37.4565 90.456 37.4405 90.656C37.4245 90.856 37.4085 91.008 37.3925 91.112C37.5285 91.096 37.6925 91.088 37.8845 91.088C38.0845 91.08 38.2245 91.076 38.3045 91.076V92H34.9685V91.208C35.1525 91.2 35.3085 91.176 35.4365 91.136C35.5725 91.096 35.6725 91.004 35.7365 90.86C35.8085 90.716 35.8365 90.484 35.8205 90.164L35.7245 87.62C35.7245 87.524 35.7165 87.36 35.7005 87.128C35.6845 86.888 35.6685 86.628 35.6525 86.348C35.6445 86.06 35.6365 85.792 35.6285 85.544C35.6045 85.6 35.5805 85.656 35.5565 85.712C35.5325 85.76 35.5125 85.812 35.4965 85.868L33.1565 92.12H32.0405ZM41.9672 92.192C41.3912 92.192 40.8712 92.068 40.4072 91.82C39.9432 91.572 39.5752 91.22 39.3032 90.764C39.0392 90.3 38.9072 89.756 38.9072 89.132C38.9072 88.468 39.0432 87.888 39.3152 87.392C39.5952 86.888 39.9632 86.5 40.4192 86.228C40.8832 85.948 41.3872 85.808 41.9312 85.808C42.5072 85.808 43.0232 85.932 43.4792 86.18C43.9352 86.428 44.2952 86.784 44.5592 87.248C44.8232 87.704 44.9552 88.252 44.9552 88.892C44.9552 89.564 44.8272 90.148 44.5712 90.644C44.3152 91.14 43.9632 91.524 43.5152 91.796C43.0672 92.06 42.5512 92.192 41.9672 92.192ZM42.0152 91.34C42.3352 91.332 42.5752 91.22 42.7352 91.004C42.9032 90.788 43.0192 90.516 43.0832 90.188C43.1472 89.86 43.1792 89.528 43.1792 89.192C43.1792 88.896 43.1552 88.596 43.1072 88.292C43.0672 87.988 42.9992 87.712 42.9032 87.464C42.8072 87.216 42.6752 87.016 42.5072 86.864C42.3472 86.712 42.1472 86.64 41.9072 86.648C41.5952 86.656 41.3472 86.768 41.1632 86.984C40.9872 87.2 40.8592 87.472 40.7792 87.8C40.7072 88.12 40.6712 88.456 40.6712 88.808C40.6712 89.216 40.7152 89.616 40.8032 90.008C40.8912 90.4 41.0312 90.724 41.2232 90.98C41.4232 91.228 41.6872 91.348 42.0152 91.34ZM45.824 92V91.22C46.048 91.22 46.208 91.176 46.304 91.088C46.4 91 46.46 90.876 46.484 90.716C46.516 90.548 46.532 90.36 46.532 90.152V88.136C46.532 87.992 46.536 87.832 46.544 87.656C46.552 87.472 46.564 87.292 46.58 87.116C46.452 87.124 46.3 87.132 46.124 87.14C45.956 87.14 45.828 87.144 45.74 87.152V86.24C46.108 86.24 46.42 86.22 46.676 86.18C46.932 86.14 47.132 86.092 47.276 86.036C47.428 85.98 47.532 85.928 47.588 85.88H48.176C48.192 85.984 48.2 86.06 48.2 86.108C48.2 86.156 48.2 86.204 48.2 86.252C48.208 86.292 48.224 86.368 48.248 86.48C48.408 86.352 48.592 86.24 48.8 86.144C49.008 86.04 49.216 85.96 49.424 85.904C49.632 85.84 49.816 85.808 49.976 85.808C50.712 85.808 51.232 86.02 51.536 86.444C51.848 86.86 52.004 87.532 52.004 88.46V90.068C52.004 90.18 52 90.34 51.992 90.548C51.984 90.748 51.972 90.94 51.956 91.124C52.092 91.108 52.236 91.1 52.388 91.1C52.54 91.092 52.656 91.088 52.736 91.088V92H49.592V91.22C49.816 91.22 49.976 91.176 50.072 91.088C50.176 91 50.24 90.876 50.264 90.716C50.296 90.548 50.312 90.36 50.312 90.152L50.3 88.448C50.3 87.928 50.224 87.544 50.072 87.296C49.928 87.04 49.68 86.912 49.328 86.912C49.128 86.912 48.928 86.956 48.728 87.044C48.536 87.132 48.372 87.236 48.236 87.356C48.236 87.468 48.236 87.584 48.236 87.704C48.236 87.816 48.236 87.928 48.236 88.04V90.068C48.236 90.18 48.232 90.34 48.224 90.548C48.216 90.748 48.204 90.94 48.188 91.124C48.316 91.108 48.456 91.1 48.608 91.1C48.768 91.092 48.888 91.088 48.968 91.088V92H45.824ZM56.3204 92.192C55.7364 92.192 55.2204 92.064 54.7724 91.808C54.3244 91.544 53.9764 91.176 53.7284 90.704C53.4804 90.224 53.3564 89.66 53.3564 89.012C53.3564 88.452 53.4804 87.928 53.7284 87.44C53.9764 86.952 54.3244 86.56 54.7724 86.264C55.2284 85.96 55.7564 85.808 56.3564 85.808C56.6924 85.808 57.0204 85.856 57.3404 85.952C57.6604 86.04 57.9484 86.196 58.2044 86.42C58.4684 86.644 58.6764 86.948 58.8284 87.332C58.9884 87.716 59.0644 88.196 59.0564 88.772L55.1204 88.844C55.1204 89.276 55.1724 89.664 55.2764 90.008C55.3884 90.352 55.5684 90.624 55.8164 90.824C56.0644 91.024 56.3964 91.124 56.8124 91.124C56.9724 91.124 57.1524 91.096 57.3524 91.04C57.5604 90.984 57.7684 90.892 57.9764 90.764C58.1924 90.628 58.3924 90.448 58.5764 90.224L59.1164 90.728C58.8284 91.136 58.5204 91.448 58.1924 91.664C57.8644 91.872 57.5364 92.012 57.2084 92.084C56.8884 92.156 56.5924 92.192 56.3204 92.192ZM55.1924 88.004H57.4004C57.3924 87.668 57.3444 87.404 57.2564 87.212C57.1764 87.012 57.0644 86.868 56.9204 86.78C56.7764 86.692 56.6084 86.648 56.4164 86.648C56.0644 86.648 55.7884 86.776 55.5884 87.032C55.3884 87.28 55.2564 87.604 55.1924 88.004ZM61.1705 95.252C60.8665 95.252 60.6065 95.16 60.3905 94.976C60.1825 94.8 60.0785 94.564 60.0785 94.268C60.0785 94.052 60.1465 93.86 60.2825 93.692C60.4265 93.532 60.6105 93.448 60.8345 93.44C61.0105 93.432 61.1585 93.488 61.2785 93.608C61.4065 93.736 61.4705 93.908 61.4705 94.124C61.4705 94.148 61.4705 94.172 61.4705 94.196C61.4705 94.22 61.4665 94.248 61.4585 94.28C61.4745 94.28 61.4945 94.276 61.5185 94.268C61.5905 94.244 61.6665 94.176 61.7465 94.064C61.8345 93.96 61.9185 93.82 61.9985 93.644C62.0865 93.46 62.1705 93.252 62.2505 93.02C62.3385 92.796 62.4145 92.56 62.4785 92.312L60.5825 88.508C60.3585 88.06 60.2105 87.724 60.1385 87.5C60.0745 87.268 60.0305 87.064 60.0065 86.888L59.4545 86.912V86H62.4425V86.768C62.1465 86.8 61.9825 86.912 61.9505 87.104C61.9265 87.296 61.9625 87.496 62.0585 87.704L63.2345 90.392C63.3145 90.184 63.4185 89.864 63.5465 89.432C63.6745 88.992 63.8265 88.516 64.0025 88.004C64.0345 87.9 64.0745 87.78 64.1225 87.644C64.1785 87.5 64.2385 87.36 64.3025 87.224C64.3665 87.08 64.4345 86.964 64.5065 86.876L63.8225 86.912V86H65.9585V86.768C65.7105 86.824 65.5025 86.976 65.3345 87.224C65.1745 87.472 65.0305 87.776 64.9025 88.136L63.4025 92.42C63.1785 93.068 62.9665 93.6 62.7665 94.016C62.5665 94.44 62.3425 94.752 62.0945 94.952C61.8465 95.152 61.5385 95.252 61.1705 95.252ZM70.5249 92.12C70.2529 91.456 69.9809 90.796 69.7089 90.14C69.4449 89.484 69.1769 88.828 68.9049 88.172C68.8409 88.02 68.7569 87.808 68.6529 87.536C68.5569 87.256 68.4529 86.936 68.3409 86.576C68.2369 86.216 68.1409 85.844 68.0529 85.46C68.0689 85.908 68.0809 86.332 68.0889 86.732C68.0969 87.124 68.0969 87.5 68.0889 87.86C68.0889 88.036 68.0889 88.216 68.0889 88.4C68.0889 88.584 68.0849 88.768 68.0769 88.952C68.0769 89.128 68.0769 89.308 68.0769 89.492C68.0769 89.668 68.0769 89.848 68.0769 90.032C68.0769 90.248 68.0689 90.456 68.0529 90.656C68.0449 90.856 68.0329 91.008 68.0169 91.112C68.1529 91.096 68.3169 91.088 68.5089 91.088C68.7089 91.08 68.8489 91.076 68.9289 91.076V92H66.1929V91.208C66.3769 91.2 66.5289 91.176 66.6489 91.136C66.7769 91.096 66.8729 91.004 66.9369 90.86C67.0089 90.716 67.0449 90.484 67.0449 90.164L67.1169 85.568C67.1249 85.352 67.1329 85.144 67.1409 84.944C67.1489 84.744 67.1569 84.592 67.1649 84.488C67.0369 84.496 66.8769 84.504 66.6849 84.512C66.4929 84.512 66.3529 84.516 66.2649 84.524V83.6H68.9169L70.7289 88.244C70.8009 88.428 70.8809 88.644 70.9689 88.892C71.0569 89.132 71.1409 89.368 71.2209 89.6C71.3009 89.824 71.3609 90.004 71.4009 90.14H71.4129C71.5169 89.86 71.6129 89.588 71.7009 89.324C71.7889 89.06 71.8809 88.804 71.9769 88.556C72.2889 87.724 72.5969 86.896 72.9009 86.072C73.2129 85.248 73.5249 84.424 73.8369 83.6H76.6089V84.392C76.4329 84.4 76.2769 84.424 76.1409 84.464C76.0049 84.504 75.9009 84.596 75.8289 84.74C75.7649 84.876 75.7369 85.108 75.7449 85.436L75.9249 90.032C75.9409 90.248 75.9409 90.456 75.9249 90.656C75.9089 90.856 75.8929 91.008 75.8769 91.112C76.0129 91.096 76.1769 91.088 76.3689 91.088C76.5689 91.08 76.7089 91.076 76.7889 91.076V92H73.4529V91.208C73.6369 91.2 73.7929 91.176 73.9209 91.136C74.0569 91.096 74.1569 91.004 74.2209 90.86C74.2929 90.716 74.3209 90.484 74.3049 90.164L74.2089 87.62C74.2089 87.524 74.2009 87.36 74.1849 87.128C74.1689 86.888 74.1529 86.628 74.1369 86.348C74.1289 86.06 74.1209 85.792 74.1129 85.544C74.0889 85.6 74.0649 85.656 74.0409 85.712C74.0169 85.76 73.9969 85.812 73.9809 85.868L71.6409 92.12H70.5249ZM81.0233 92C81.0073 91.888 80.9953 91.796 80.9873 91.724C80.9873 91.644 80.9833 91.552 80.9753 91.448C80.7033 91.72 80.4153 91.912 80.1113 92.024C79.8073 92.136 79.4993 92.192 79.1873 92.192C78.6753 92.192 78.2753 92.04 77.9873 91.736C77.6993 91.432 77.5553 91.052 77.5553 90.596C77.5553 90.212 77.6513 89.884 77.8433 89.612C78.0433 89.34 78.3033 89.12 78.6233 88.952C78.9513 88.776 79.3113 88.644 79.7033 88.556C80.1033 88.46 80.5033 88.404 80.9033 88.388V87.764C80.9033 87.556 80.8753 87.368 80.8193 87.2C80.7713 87.032 80.6833 86.9 80.5553 86.804C80.4353 86.708 80.2633 86.664 80.0393 86.672C79.8873 86.68 79.7393 86.712 79.5953 86.768C79.4513 86.824 79.3273 86.904 79.2233 87.008C79.2873 87.08 79.3273 87.16 79.3433 87.248C79.3593 87.328 79.3673 87.4 79.3673 87.464C79.3673 87.624 79.3033 87.792 79.1753 87.968C79.0473 88.136 78.8433 88.216 78.5633 88.208C78.3233 88.2 78.1393 88.116 78.0113 87.956C77.8833 87.796 77.8193 87.608 77.8193 87.392C77.8193 87.072 77.9313 86.796 78.1553 86.564C78.3873 86.324 78.6953 86.14 79.0793 86.012C79.4633 85.876 79.8873 85.808 80.3513 85.808C81.0553 85.808 81.5993 85.992 81.9833 86.36C82.3753 86.72 82.5713 87.3 82.5713 88.1C82.5713 88.372 82.5713 88.604 82.5713 88.796C82.5713 88.988 82.5673 89.18 82.5593 89.372C82.5593 89.564 82.5593 89.796 82.5593 90.068C82.5593 90.18 82.5553 90.34 82.5473 90.548C82.5393 90.748 82.5273 90.94 82.5113 91.124C82.6473 91.108 82.7913 91.1 82.9433 91.1C83.0953 91.092 83.2113 91.088 83.2913 91.088V92H81.0233ZM80.8913 89.24C80.6673 89.264 80.4553 89.304 80.2553 89.36C80.0553 89.416 79.8793 89.492 79.7273 89.588C79.5833 89.684 79.4673 89.8 79.3793 89.936C79.2993 90.072 79.2593 90.224 79.2593 90.392C79.2673 90.616 79.3393 90.776 79.4753 90.872C79.6113 90.968 79.7673 91.016 79.9433 91.016C80.1273 91.016 80.2993 90.976 80.4593 90.896C80.6193 90.816 80.7633 90.712 80.8913 90.584C80.8913 90.504 80.8913 90.428 80.8913 90.356C80.8913 90.276 80.8913 90.196 80.8913 90.116C80.8913 89.972 80.8913 89.828 80.8913 89.684C80.8913 89.532 80.8913 89.384 80.8913 89.24ZM86.3094 92.192C86.0694 92.192 85.8374 92.164 85.6134 92.108C85.3894 92.052 85.1894 91.948 85.0134 91.796C84.8374 91.636 84.6974 91.404 84.5934 91.1C84.4894 90.796 84.4374 90.392 84.4374 89.888L84.4614 86.996H83.6454V86C83.8934 85.992 84.1334 85.908 84.3654 85.748C84.5974 85.588 84.7934 85.38 84.9534 85.124C85.1214 84.868 85.2334 84.6 85.2894 84.32H86.1774L86.1654 86H87.6894V86.924L86.1654 86.96L86.1534 89.912C86.1534 90.096 86.1694 90.28 86.2014 90.464C86.2414 90.64 86.3134 90.788 86.4174 90.908C86.5214 91.02 86.6734 91.076 86.8734 91.076C86.9854 91.076 87.1374 91.036 87.3294 90.956C87.5294 90.876 87.7414 90.676 87.9654 90.356L88.5414 90.896C88.3254 91.216 88.1014 91.464 87.8694 91.64C87.6374 91.816 87.4134 91.944 87.1974 92.024C86.9894 92.104 86.8054 92.152 86.6454 92.168C86.4854 92.184 86.3734 92.192 86.3094 92.192ZM91.7344 92.192C91.1504 92.192 90.6344 92.064 90.1864 91.808C89.7384 91.544 89.3904 91.176 89.1424 90.704C88.8944 90.224 88.7704 89.66 88.7704 89.012C88.7704 88.452 88.8944 87.928 89.1424 87.44C89.3904 86.952 89.7384 86.56 90.1864 86.264C90.6424 85.96 91.1704 85.808 91.7704 85.808C92.1064 85.808 92.4344 85.856 92.7544 85.952C93.0744 86.04 93.3624 86.196 93.6184 86.42C93.8824 86.644 94.0904 86.948 94.2424 87.332C94.4024 87.716 94.4784 88.196 94.4704 88.772L90.5344 88.844C90.5344 89.276 90.5864 89.664 90.6904 90.008C90.8024 90.352 90.9824 90.624 91.2304 90.824C91.4784 91.024 91.8104 91.124 92.2264 91.124C92.3864 91.124 92.5664 91.096 92.7664 91.04C92.9744 90.984 93.1824 90.892 93.3904 90.764C93.6064 90.628 93.8064 90.448 93.9904 90.224L94.5304 90.728C94.2424 91.136 93.9344 91.448 93.6064 91.664C93.2784 91.872 92.9504 92.012 92.6224 92.084C92.3024 92.156 92.0064 92.192 91.7344 92.192ZM90.6064 88.004H92.8144C92.8064 87.668 92.7584 87.404 92.6704 87.212C92.5904 87.012 92.4784 86.868 92.3344 86.78C92.1904 86.692 92.0224 86.648 91.8304 86.648C91.4784 86.648 91.2024 86.776 91.0024 87.032C90.8024 87.28 90.6704 87.604 90.6064 88.004Z" fill="black"/>
<line x1="36.9947" y1="98" x2="84.0053" y2="98" stroke="black"/>
<path d="M53.5 75.75C50.3403 75.75 47.6753 74.6649 45.5052 72.4948C43.3351 70.3247 42.25 67.6597 42.25 64.5C42.25 63.1806 42.4757 61.8958 42.9271 60.6458C43.3785 59.3958 44.0208 58.2674 44.8542 57.2604L52.25 48.3542L47.1979 38.25H74.8021L69.75 48.3542L77.1458 57.2604C77.9792 58.2674 78.6215 59.3958 79.0729 60.6458C79.5243 61.8958 79.75 63.1806 79.75 64.5C79.75 67.6597 78.6562 70.3247 76.4687 72.4948C74.2812 74.6649 71.625 75.75 68.5 75.75H53.5ZM61 65.3333C59.8542 65.3333 58.8733 64.9253 58.0573 64.1094C57.2413 63.2934 56.8333 62.3125 56.8333 61.1667C56.8333 60.0208 57.2413 59.0399 58.0573 58.224C58.8733 57.408 59.8542 57 61 57C62.1458 57 63.1267 57.408 63.9427 58.224C64.7587 59.0399 65.1667 60.0208 65.1667 61.1667C65.1667 62.3125 64.7587 63.2934 63.9427 64.1094C63.1267 64.9253 62.1458 65.3333 61 65.3333ZM56.0521 46.5833H65.9479L68.0312 42.4167H53.9687L56.0521 46.5833ZM53.5 71.5833H68.5C70.4792 71.5833 72.1545 70.8976 73.526 69.526C74.8976 68.1545 75.5833 66.4792 75.5833 64.5C75.5833 63.6667 75.4358 62.8594 75.1406 62.0781C74.8455 61.2969 74.4375 60.5937 73.9167 59.9687L66.2604 50.75H55.7917L48.0833 59.9167C47.5625 60.5417 47.1545 61.2535 46.8594 62.0521C46.5642 62.8507 46.4167 63.6667 46.4167 64.5C46.4167 66.4792 47.1024 68.1545 48.474 69.526C49.8455 70.8976 51.5208 71.5833 53.5 71.5833Z" fill="#1F1F1F"/>
<path d="M63.5 33.5C61.8611 33.5 60.4028 33.0347 59.125 32.1042C57.8472 31.1736 56.9444 29.9722 56.4167 28.5H53.5V26.8333H56.0417C56.0139 26.6806 56 26.5417 56 26.4167V25.5833C56 25.4583 56.0139 25.3194 56.0417 25.1667H53.5V23.5H56.4167C56.9444 22.0278 57.8472 20.8264 59.125 19.8958C60.4028 18.9653 61.8611 18.5 63.5 18.5C64.4583 18.5 65.3646 18.6667 66.2188 19C67.0729 19.3333 67.8333 19.8056 68.5 20.4167L67.0417 21.875C66.5556 21.4722 66.0104 21.1563 65.4063 20.9271C64.8021 20.6979 64.1667 20.5833 63.5 20.5833C62.4583 20.5833 61.5104 20.8507 60.6563 21.3854C59.8021 21.9201 59.1528 22.625 58.7083 23.5H63.5V25.1667H58.1667C58.1389 25.3194 58.1181 25.4583 58.1042 25.5833C58.0903 25.7083 58.0833 25.8472 58.0833 26C58.0833 26.1528 58.0903 26.2917 58.1042 26.4167C58.1181 26.5417 58.1389 26.6806 58.1667 26.8333H63.5V28.5H58.7083C59.1528 29.375 59.8021 30.0799 60.6563 30.6146C61.5104 31.1493 62.4583 31.4167 63.5 31.4167C64.1667 31.4167 64.809 31.3021 65.4271 31.0729C66.0451 30.8438 66.5833 30.5278 67.0417 30.125L68.5 31.5833C67.8333 32.1944 67.0729 32.6667 66.2188 33C65.3646 33.3333 64.4583 33.5 63.5 33.5Z" fill="#1F1F1F"/>
</svg>
